<?xml version="1.0" encoding="utf-8"?>
<!-- Generator: Adobe Illustrator 17.0.0, SVG Export Plug-In . SVG Version: 6.00 Build 0)  -->
<!DOCTYPE svg PUBLIC "-//W3C//DTD SVG 1.1//EN" "http://www.w3.org/Graphics/SVG/1.1/DTD/svg11.dtd">
<svg version="1.1" id="图层_1" xmlns="http://www.w3.org/2000/svg" xmlns:xlink="http://www.w3.org/1999/xlink" x="0px" y="0px"
	 width="13.389px" height="12.049px" viewBox="3.306 2.976 13.389 12.049" enable-background="new 3.306 2.976 13.389 12.049"
	 xml:space="preserve">
<g>
	<g transform="scale(0.1953125, 0.1953125)">
		<path fill="#272635" d="M16.985,37.232c0,2.02,0.489,4.239,1.456,6.598c0.03,0.087,0.06,0.167,0.097,0.244
			c6.085,14.59,29.513,31.372,30.51,32.142c0.619,0.475,1.354,0.71,2.093,0.71c0.751,0,1.496-0.248,2.117-0.73
			c0.857-0.663,20.832-15.042,28.771-28.634c0.301-0.459,0.522-0.904,0.73-1.285c0.054-0.12,0.114-0.244,0.181-0.361l0.027-0.054
			c0.02-0.047,0.054-0.097,0.08-0.144c0.475-0.92,0.857-1.781,1.158-2.617c0.823-2.155,1.225-4.075,1.225-5.862
			c0-0.143-0.007-0.262-0.013-0.367c0.027-0.231,0.061-0.551,0.061-0.927c0-11.417-8.97-20.709-19.982-20.709
			c-5.436,0-10.577,2.344-14.297,6.341c-3.719-3.996-8.87-6.341-14.297-6.341c-11.012,0-19.976,9.286-19.976,20.709
			c0,0.383,0.037,0.724,0.067,1.004C16.988,37.041,16.985,37.134,16.985,37.232"/>
	</g>
</g>
</svg>
