<?xml version="1.0" encoding="utf-8"?>
<!-- Generator: Adobe Illustrator 17.0.0, SVG Export Plug-In . SVG Version: 6.00 Build 0)  -->
<!DOCTYPE svg PUBLIC "-//W3C//DTD SVG 1.1//EN" "http://www.w3.org/Graphics/SVG/1.1/DTD/svg11.dtd">
<svg version="1.1" id="图层_1" xmlns="http://www.w3.org/2000/svg" xmlns:xlink="http://www.w3.org/1999/xlink" x="0px" y="0px"
	 width="17.038px" height="15.333px" viewBox="1.481 1.334 17.038 15.333" enable-background="new 1.481 1.334 17.038 15.333"
	 xml:space="preserve">
<g>
	<g transform="scale(0.1953125, 0.1953125)">
		<path fill="#272635" d="M94.819,33.183c0-14.528-11.415-26.354-25.428-26.354c-6.917,0-13.459,2.983-18.193,8.069
			C46.466,9.813,39.912,6.83,33.006,6.83c-14.013,0-25.421,11.817-25.421,26.354c0,0.487,0.047,0.922,0.085,1.278
			c-0.006,0.117-0.01,0.234-0.01,0.359c0,2.57,0.622,5.394,1.853,8.397c0.038,0.111,0.077,0.213,0.124,0.311
			c7.743,18.567,37.556,39.923,38.825,40.902c0.788,0.605,1.722,0.903,2.664,0.903c0.956,0,1.904-0.315,2.694-0.929
			c1.09-0.843,26.509-19.141,36.612-36.438c0.383-0.584,0.664-1.15,0.929-1.636c0.068-0.153,0.145-0.311,0.23-0.46l0.034-0.068
			c0.026-0.06,0.068-0.124,0.102-0.183c0.605-1.171,1.09-2.266,1.474-3.331c1.048-2.743,1.559-5.185,1.559-7.46
			c0-0.181-0.009-0.334-0.017-0.467C94.776,34.069,94.819,33.662,94.819,33.183z"/>
	</g>
</g>
</svg>
