<?xml version="1.0" encoding="utf-8"?>
<!-- Generator: Adobe Illustrator 17.0.0, SVG Export Plug-In . SVG Version: 6.00 Build 0)  -->
<!DOCTYPE svg PUBLIC "-//W3C//DTD SVG 1.1//EN" "http://www.w3.org/Graphics/SVG/1.1/DTD/svg11.dtd">
<svg version="1.1" id="图层_1" xmlns="http://www.w3.org/2000/svg" xmlns:xlink="http://www.w3.org/1999/xlink" x="0px" y="0px"
	 width="30.002px" height="26.999px" viewBox="-5.001 -4.499 30.002 26.999" enable-background="new -5.001 -4.499 30.002 26.999"
	 xml:space="preserve">
<g>
	<g transform="scale(0.1953125, 0.1953125)">
		<path fill="#272635" d="M128.007,23.369c0-25.583-20.1-46.406-44.775-46.406c-12.18,0-23.7,5.253-32.036,14.208
			c-8.333-8.955-19.875-14.208-32.036-14.208c-24.675,0-44.763,20.808-44.763,46.406c0,0.858,0.083,1.623,0.15,2.25
			c-0.01,0.206-0.018,0.413-0.018,0.633c0,4.526,1.095,9.498,3.263,14.786c0.068,0.195,0.135,0.375,0.218,0.548
			c13.635,32.694,66.133,70.3,68.368,72.025c1.388,1.065,3.033,1.59,4.691,1.59c1.683,0,3.353-0.555,4.743-1.635
			c1.92-1.485,46.68-33.705,64.471-64.163c0.675-1.028,1.17-2.025,1.635-2.88c0.12-0.27,0.255-0.548,0.405-0.81l0.06-0.12
			c0.045-0.105,0.12-0.218,0.18-0.323c1.065-2.063,1.92-3.99,2.595-5.865c1.845-4.83,2.745-9.131,2.745-13.136
			c0-0.32-0.015-0.588-0.03-0.822C127.932,24.929,128.007,24.212,128.007,23.369z"/>
	</g>
</g>
</svg>
